PathFileType	4	(X/Y/Z)	E:\Qualisys_Data\Carbon_Farble_Plate\Data\Amateur_Runner\S14\T1\S14T1V14_c3d.trc
DataRate	CameraRate	NumFrames	NumMarkers	Units	OrigDataRate	OrigDataStartFrame	OrigNumFrames
200.000000	200.000000	4	39	mm	200.000000	172	344
Frame#	Time	LSHO			RSHO			LICST			RICST			LASIS			LHEEL			RASIS			LTROC			RTROC			SACR			LTH1			LSK4			LTH2			LTH3			RHM5			LSK2			LTH4			RTH1			LTOE			RTH2			RTH3			RTH4			LLEP			RLEP			LSK1			LSK3			RSK1			LHM5			RSK2			LFT1			RSK3			RSK4			LLME			RLME			RTOE			RHEEL			RFT1			RFT2			LFT2			
		X1	Y1	Z1	X2	Y2	Z2	X3	Y3	Z3	X4	Y4	Z4	X5	Y5	Z5	X6	Y6	Z6	X7	Y7	Z7	X8	Y8	Z8	X9	Y9	Z9	X10	Y10	Z10	X11	Y11	Z11	X12	Y12	Z12	X13	Y13	Z13	X14	Y14	Z14	X15	Y15	Z15	X16	Y16	Z16	X17	Y17	Z17	X18	Y18	Z18	X19	Y19	Z19	X20	Y20	Z20	X21	Y21	Z21	X22	Y22	Z22	X23	Y23	Z23	X24	Y24	Z24	X25	Y25	Z25	X26	Y26	Z26	X27	Y27	Z27	X28	Y28	Z28	X29	Y29	Z29	X30	Y30	Z30	X31	Y31	Z31	X32	Y32	Z32	X33	Y33	Z33	X34	Y34	Z34	X35	Y35	Z35	X36	Y36	Z36	X37	Y37	Z37	X38	Y38	Z38	X39	Y39	Z39	

173	0.86	87.14889526367188	1453.811645507812	-456.7080383300781	49.65658950805664	1449.08056640625	-162.6638641357422	8.78117561340332	1006.821350097656	-442.4883422851562	32.87567138671875	1007.922485351562	-169.9161834716797	46.12690734863281	953.80419921875	-419.0784912109375	-534.3471069335938	376.8234558105469	-320.5740661621094	55.86338424682617	963.8662719726562	-190.5010833740234	-115.2837600708008	904.4024047851562	-456.8855895996094	-82.11495971679688	912.9109497070312	-135.2522430419922	-117.0425872802734	1021.156372070312	-306.1699829101562	-93.30489349365234	667.7415771484375	-456.7862243652344	-379.2427978515625	458.1003723144531	-400.1941528320312	-166.6575622558594	689.1342163085938	-432.8925170898438	-111.6897811889648	571.3030395507812	-436.3901062011719	328.9443664550781	129.1581726074219	-130.9691314697266	-295.8564147949219	508.956787109375	-421.2852783203125	-187.8595886230469	594.0516357421875	-415.1486206054688	115.7919006347656	707.9666748046875	-129.7576751708984	-511.1342163085938	118.8748016357422	-342.8172607421875	40.86160659790039	680.551513671875	-119.8937683105469	150.4910888671875	618.8112182617188	-163.0260620117188	74.71692657470703	586.126220703125	-142.5550079345703	-171.0976257324219	520.5224609375	-426.3769836425781	122.7979965209961	530.7862548828125	-152.5574035644531	-253.2141723632812	438.6473999023438	-425.603271484375	-340.5605163574219	387.1631469726562	-409.4639282226562	172.4906768798828	418.25732421875	-146.0189819335938	-546.1082153320312	181.5356903076172	-398.0696716308594	89.60110473632812	397.7765197753906	-147.9582824707031	-550.8313598632812	360.8106384277344	-287.2474975585938	191.1416625976562	316.4793701171875	-155.8507232666016	112.9483032226562	304.1296691894531	-157.6759796142578	-509.1643371582031	330.3220520019531	-381.1697692871094	190.1894073486328	134.684326171875	-172.3786010742188	395.4072265625	172.1902923583984	-184.9916687011719	154.1458282470703	84.76982879638672	-229.9107208251953	182.572509765625	65.01298522949219	-257.31982421875	162.6016235351562	62.51381683349609	-202.4052581787109	-564.6123046875	368.9084167480469	-341.5980529785156
174	0.865	102.4760665893555	1450.780639648438	-455.731201171875	65.49974822998047	1445.375244140625	-161.6309509277344	23.8088321685791	1003.474853515625	-442.7161254882812	47.61960983276367	1004.397399902344	-170.2081604003906	61.37929534912109	950.64501953125	-419.1253967285156	-517.5267333984375	381.421875	-319.4637756347656	71.65481567382812	960.4008178710938	-190.1047973632812	-99.7717056274414	900.0416870117188	-456.7515563964844	-66.36795043945312	909.119384765625	-134.9836120605469	-101.5563354492188	1017.141296386719	-305.9745483398438	-75.15132141113281	663.357177734375	-457.523193359375	-360.5261840820312	458.1850280761719	-399.7980346679688	-148.7732696533203	683.9827880859375	-432.5051879882812	-92.7455825805664	566.8253784179688	-436.7946166992188	341.7405090332031	124.7909622192383	-131.9761505126953	-276.1235046386719	507.0739135742188	-421.2268371582031	-168.8931884765625	588.7575073242188	-415.0942077636719	132.4941711425781	705.4881591796875	-129.6388244628906	-499.5328063964844	123.0864562988281	-342.7304382324219	57.20794296264648	677.93212890625	-120.7016372680664	167.7414703369141	616.6217041015625	-162.9790954589844	91.47428894042967	583.9249877929688	-143.5377655029297	-151.4071960449219	515.8018798828125	-426.8796691894531	139.5372924804688	527.8911743164062	-152.9322052001953	-235.1242218017578	435.4654235839844	-425.7993774414062	-323.7081604003906	386.5442504882812	-409.1597290039062	188.2514801025391	414.4100036621094	-146.4582824707031	-533.8292236328125	186.9972534179688	-397.10791015625	104.7872009277344	395.0604248046875	-147.9438629150391	-534.0112915039062	365.1239318847656	-286.471435546875	205.7537689208984	312.6607055664062	-156.077392578125	127.6962585449219	300.9539794921875	-157.8244934082031	-493.5028991699219	334.458984375	-380.15380859375	203.1035308837891	131.1646881103516	-172.5095977783203	408.2367248535156	167.6466522216797	-186.7787322998047	166.207763671875	81.01654815673828	-229.6693115234375	194.6852874755859	61.1505241394043	-257.5458679199219	174.7963256835938	58.79155731201172	-202.4172210693359	-547.5897216796875	374.4112548828125	-339.6915283203125
175	0.87	117.3280029296875	1447.461181640625	-454.4613952636719	81.07586669921875	1441.440673828125	-160.3760986328125	38.91571044921875	999.8187866210938	-442.64794921875	63.88426208496094	1001.216796875	-169.4594116210938	76.9712905883789	947.3483276367188	-418.8275451660156	-500.0412902832031	385.8208618164062	-317.7191162109375	87.81977844238281	957.6356811523438	-189.7102661132812	-84.06710052490234	895.2239379882812	-456.8341979980469	-50.81253814697266	905.459228515625	-134.6112823486328	-86.22532653808594	1012.568176269531	-305.6802978515625	-56.7548828125	659.418212890625	-457.448486328125	-341.2278442382812	458.1378479003906	-399.7919616699219	-130.8211975097656	678.74072265625	-432.5596313476562	-73.35274505615234	562.0084228515625	-437.4933166503906	354.1564636230469	119.9119186401367	-133.7262115478516	-256.0469055175781	504.9220581054688	-421.7266540527344	-149.5739288330078	583.5429077148438	-415.2920227050781	149.5772094726562	703.1248779296875	-128.9632720947266	-487.5569763183594	127.4256134033203	-342.3930969238281	74.08615112304688	675.1044921875	-122.0269927978516	185.0188446044922	614.1957397460938	-162.5686187744141	108.6158981323242	581.5263671875	-144.885009765625	-131.5377807617188	510.5376892089844	-427.52734375	156.2051086425781	524.9658813476562	-153.3479614257812	-216.7737579345703	431.923828125	-426.4772033691406	-306.2711181640625	385.5242004394531	-408.6974487304688	203.7467346191406	410.4994506835938	-146.9035186767578	-520.7199096679688	192.1502380371094	-396.3656616210938	120.1144561767578	391.646484375	-148.1130676269531	-516.891357421875	369.8012390136719	-284.6463623046875	219.8697662353516	308.3037414550781	-156.4249572753906	141.0022277832031	297.2465209960938	-158.2474975585938	-477.6101684570312	338.1475830078125	-379.0123291015625	215.0843353271484	126.9615936279297	-172.8836669921875	420.2391967773438	162.2245788574219	-188.840087890625	177.7680816650391	77.2237777709961	-229.9827423095703	205.3408508300781	57.11224365234375	-257.6951599121094	185.9380645751953	54.78385925292969	-202.6039733886719	-530.2596435546875	379.5359802246094	-338.2245178222656
176	0.875	132.3184967041016	1443.70263671875	-453.4662170410156	96.90133666992188	1436.8671875	-158.9925079345703	53.58208084106445	996.0416870117188	-442.8287963867188	79.30300903320312	997.5635375976562	-169.316650390625	92.15702056884766	944.0232543945312	-418.8686828613281	-482.1815490722656	390.2430725097656	-316.0835876464844	103.7703475952148	954.4694213867188	-189.0683441162109	-68.14331817626953	890.4729614257812	-456.5951843261719	-35.16379547119141	901.6519165039062	-134.7550048828125	-70.83525085449219	1008.019287109375	-305.3157653808594	-38.36198806762695	654.4752197265625	-457.6189880371094	-321.5787963867188	457.6402893066406	-399.6070251464844	-112.2465667724609	673.0313110351562	-432.5032958984375	-53.44775772094727	557.259033203125	-437.5808715820312	365.7705383300781	114.5608596801758	-135.8564758300781	-235.3764953613281	502.3167419433594	-421.9099426269531	-130.2232360839844	577.0271606445312	-415.2392883300781	166.7071685791016	700.1610717773438	-128.5901947021484	-474.7040405273438	131.5857543945312	-342.2464294433594	91.37344360351562	672.568359375	-122.8989028930664	202.4130249023438	611.2266235351562	-162.4108581542969	125.4058303833008	578.7935791015625	-145.6833190917969	-111.2739334106445	505.2571105957031	-428.4773559570312	172.7624816894531	521.6774291992188	-153.8551635742188	-198.1207275390625	428.8561401367188	-427.0295104980469	-288.3808288574219	384.333740234375	-408.7607421875	218.8812255859375	406.1652526855469	-147.0775909423828	-506.9040222167969	197.3624725341797	-395.7333374023438	135.2565155029297	388.7925415039062	-147.9637756347656	-499.1015319824219	374.1951599121094	-283.097412109375	233.7500762939453	303.9349060058594	-157.2864074707031	155.8120269775391	293.907958984375	-158.9926910400391	-460.6560974121094	342.7959899902344	-377.9984130859375	226.5451812744141	122.5561447143555	-173.1683959960938	431.4882507324219	156.2728576660156	-191.0716705322266	188.0575714111328	72.90806579589844	-229.6791534423828	215.4946441650391	52.91024780273438	-258.1365051269531	196.6578674316406	50.42295837402344	-202.5955810546875	-512.6660766601562	384.4934997558594	-336.5247192382812
